<svg width="24" height="24" viewBox="0 0 24 24" fill="none" xmlns="http://www.w3.org/2000/svg">
<path fill-rule="evenodd" clip-rule="evenodd" d="M12 4C7.55228 4 4 7.55228 4 12V12.294C4.56235 11.9794 5.21041 11.8 5.9 11.8C7.9648 11.8 9.66537 13.5473 9.79779 15.5335C9.79926 15.5556 9.8 15.5778 9.8 15.6V18.1C9.8 20.2523 8.05228 22 5.9 22C3.77057 22 2 20.2749 2 18.2V16.9V15.7V12C2 6.44772 6.44772 2 12 2C17.5523 2 22 6.44772 22 12V15.6904C22 15.6936 22 15.6968 22 15.7V18.2C22 20.3523 20.2523 22.1 18.1 22.1C15.9477 22.1 14.2 20.3523 14.2 18.2V15.7C14.2 13.5477 15.9477 11.8 18.1 11.8C18.7896 11.8 19.4377 11.9794 20 12.294V12C20 7.55228 16.4477 4 12 4ZM20 15.6933C19.9964 14.6487 19.1455 13.8 18.1 13.8C17.0523 13.8 16.2 14.6523 16.2 15.7V18.2C16.2 19.2477 17.0523 20.1 18.1 20.1C19.1477 20.1 20 19.2477 20 18.2V16.9048C20 16.9032 20 16.9016 20 16.9V15.6933ZM4 16.9V15.7C4 14.6523 4.85228 13.8 5.9 13.8C6.82608 13.8 7.71707 14.6361 7.8 15.6369V18.1C7.8 19.1477 6.94772 20 5.9 20C4.82943 20 4 19.1251 4 18.2V16.9Z" fill="black"/>
</svg>
