<svg width="24" height="24" viewBox="0 0 24 24" fill="none" xmlns="http://www.w3.org/2000/svg">
<path fill-rule="evenodd" clip-rule="evenodd" d="M4.7 6C3.72764 6 3 6.77661 3 7.6V16.4C3 17.2234 3.72764 18 4.7 18H12C12.5523 18 13 18.4477 13 19C13 19.5523 12.5523 20 12 20H4.7C2.67236 20 1 18.3766 1 16.4V7.6C1 5.62339 2.67236 4 4.7 4H7.4C10.5231 4 13 6.41893 13 9.4C13 9.95228 12.5523 10.4 12 10.4C11.4477 10.4 11 9.95228 11 9.4C11 7.58107 9.47694 6 7.4 6H4.7Z" fill="black"/>
<path fill-rule="evenodd" clip-rule="evenodd" d="M16.5 6C14.5376 6 13 7.56684 13 9.4V16.4C13 16.9523 12.5523 17.4 12 17.4C11.4477 17.4 11 16.9523 11 16.4V9.4C11 6.43316 13.4624 4 16.5 4H19.2C21.3033 4 23 5.6 23 7.6V16.4C23 18.3766 21.3276 20 19.3 20H12C11.4477 20 11 19.5523 11 19C11 18.4477 11.4477 18 12 18H19.3C20.2724 18 21 17.2234 21 16.4V7.6C21 6.8 20.2967 6 19.2 6H16.5Z" fill="black"/>
</svg>
