<svg width="24" height="24" viewBox="0 0 24 24" fill="none" xmlns="http://www.w3.org/2000/svg">
<path fill-rule="evenodd" clip-rule="evenodd" d="M14.3536 5.85658C14.0728 5.9886 13.8242 6.28835 13.8242 6.75339V8.27277C13.8242 8.7637 13.4138 9.16168 12.9075 9.16168H10.0842C6.31447 9.16168 3.00125 12.3817 2.83951 16.5624C4.65273 14.8499 7.01722 13.8666 9.57999 13.8666H12.9075C13.4138 13.8666 13.8242 14.2645 13.8242 14.7555V17.0852C13.8242 17.5502 14.0728 17.85 14.3536 17.982C14.6343 18.114 14.9493 18.0878 15.203 17.8564C15.203 17.8563 15.2029 17.8564 15.203 17.8564L20.8316 12.707C21.3062 12.2163 21.2399 11.4913 20.8627 11.1598L20.8493 11.1478L15.2032 5.98242C15.2031 5.98229 15.2033 5.98254 15.2032 5.98242C14.9496 5.75109 14.6342 5.72464 14.3536 5.85658ZM13.5537 4.25692C14.4577 3.83183 15.6046 3.90693 16.4601 4.68819L22.1014 9.84912C23.3265 10.9338 23.2604 12.8271 22.1378 13.9547C22.1279 13.9647 22.1178 13.9744 22.1074 13.9839L16.4607 19.1498C15.6052 19.9311 14.4577 20.0067 13.5537 19.5817C12.6497 19.1566 11.9908 18.2408 11.9908 17.0852V15.6444H9.57999C6.80046 15.6444 4.26195 17.0807 2.69999 19.5727C2.4865 19.9133 2.06528 20.0745 1.66945 19.967C1.27363 19.8595 1 19.5096 1 19.111V16.8826C1 11.6965 5.07622 7.38387 10.0842 7.38387H11.9908V6.75339C11.9908 5.59776 12.6497 4.68201 13.5537 4.25692Z" fill="black"/>
</svg>
